#!OML:ASF F:\VICON\USERDATA\INSTALL\rory3\rory3.ASF
:FULLY-SPECIFIED
:DEGREES
2426
root 6.62661 14.6144 -3.50942 -362.465 7.52867 354.464
lowerback 19.1652 5.11735 -2.23738
upperback -1.12357 6.73335 3.4824
thorax -12.7528 3.43592 3.1249
lowerneck -12.5685 -4.6554 -0.990023
upperneck 17.2004 -6.72049 2.90055
head 7.49521 -2.99588 0.427815
rclavicle -1.17283e-013 -1.37161e-014
rhumerus -21.6627 58.6296 -111.744
rradius 47.3572
rwrist -66.1944
rhand -14.6801 9.89173
rfingers 7.12502
rthumb 11.4733 -19.7743
lclavicle -1.17283e-013 -1.37161e-014
lhumerus -35.1106 26.0585 63.9033
lradius 47.6499
lwrist 58.6892
lhand 0.24578 25.2044
lfingers 7.12502
lthumb 25.8258 53.4712
rfemur -24.0343 -18.0953 0.359699
rtibia 41.7693
rfoot -20.0621 -19.9946
rtoes 34.7895
lfemur -31.9888 11.3703 -24.8234
ltibia 67.4567
lfoot -32.8433 2.2181
ltoes 32.2166
2427
root 6.62823 14.6096 -3.49787 -362.432 7.11372 354.595
lowerback 19.1791 5.37203 -2.23945
upperback -1.24647 7.04841 3.26901
thorax -12.9004 3.57241 2.78312
lowerneck -12.5287 -4.72019 -0.873827
upperneck 17.4164 -6.85947 2.99387
head 7.56162 -3.0418 0.423433
rclavicle -7.47927e-015 9.54166e-015
rhumerus -21.8264 58.7741 -112.009
rradius 47.2839
rwrist -66.1339
rhand -15.7384 11.0767
rfingers 7.12502
rthumb 10.4526 -18.6435
lclavicle -7.47927e-015 9.54166e-015
lhumerus -34.9925 25.9775 63.7483
lradius 47.3698
lwrist 58.3649
lhand 0.317095 25.1959
lfingers 7.12502
lthumb 25.8941 53.4527
rfemur -25.0169 -17.0009 0.434075
rtibia 40.2032
rfoot -21.4859 -19.8646
rtoes 35.2133
lfemur -31.8688 11.8226 -24.9368
ltibia 67.3568
lfoot -34.1941 5.70521
ltoes 22.2482
2428
root 6.62245 14.6141 -3.48303 -362.741 7.44097 354.772
lowerback 19.2433 5.29432 -2.52552
upperback -1.05456 6.87348 3.28908
thorax -12.7396 3.50902 3.02329
lowerneck -12.5692 -4.63491 -0.801797
upperneck 17.3362 -6.73703 2.90815
head 7.53415 -2.98791 0.396716
rclavicle -4.00054e-014 -1.90833e-014
rhumerus -20.6714 58.2004 -111.035
rradius 47.3821
rwrist -67.385
rhand -13.9467 8.15411
rfingers 7.12502
rthumb 12.1805 -21.4713
lclavicle -4.00054e-014 -1.90833e-014
lhumerus -34.9969 26.4545 63.5657
lradius 47.2409
lwrist 57.8896
lhand 0.118317 25.2896
lfingers 7.12502
lthumb 25.7037 53.574
rfemur -24.7472 -16.1279 0.143807
rtibia 38.1922
rfoot -23.6396 -20.5833
rtoes 31.6601
lfemur -31.2617 11.82 -24.9827
ltibia 67.0376
lfoot -32.7953 2.68828
ltoes 31.1663
2429
root 6.61718 14.6199 -3.47124 -362.942 7.8434 354.921
lowerback 19.6034 5.21985 -2.55899
upperback -1.13035 6.7421 3.12666
thorax -13.0046 3.44105 2.87453
lowerneck -12.516 -4.68247 -0.829114
upperneck 17.4502 -6.84357 3.12514
head 7.57379 -3.01827 0.460388
rclavicle 2.74199e-014 2.38542e-015
rhumerus -20.8205 58.209 -111.316
rradius 47.3784
rwrist -67.1506
rhand -14.7321 9.32943
rfingers 7.12502
rthumb 11.4232 -20.3394
lclavicle 2.74199e-014 2.38542e-015
lhumerus -35.2704 25.7778 63.4499
lradius 47.693
lwrist 58.9193
lhand -0.233599 25.3214
lfingers 7.12502
lthumb 25.3666 53.6541
rfemur -24.418 -15.4199 -0.184244
rtibia 36.1836
rfoot -25.6708 -20.2367
rtoes 32.7153
lfemur -30.839 11.5433 -25.1019
ltibia 66.8079
lfoot -32.8595 1.62394
ltoes 31.7748
2430
root 6.60221 14.634 -3.45856 -363.389 7.99351 354.706
lowerback 20.2517 5.19482 -2.37765
upperback -1.18672 6.74173 3.10324
thorax -13.4193 3.42277 2.69917
lowerneck -12.3007 -4.69772 -0.748402
upperneck 17.3448 -6.89138 3.20744
head 7.50252 -3.03324 0.475538
rclavicle 9.528e-014 4.52235e-014
rhumerus -21.3563 58.3458 -112.001
rradius 47.383
rwrist -66.5959
rhand -15.5072 9.78722
rfingers 7.12502
rthumb 10.6755 -19.9216
lclavicle 9.528e-014 4.52235e-014
lhumerus -35.5566 25.237 63.2604
lradius 47.8877
lwrist 59.2486
lhand 0.517238 25.4506
lfingers 7.12502
lthumb 26.0857 53.6792
rfemur -23.7246 -13.7031 -0.0810455
rtibia 33.8921
rfoot -27.9225 -20.6187
rtoes 33.7174
lfemur -30.2038 11.6492 -24.651
ltibia 66.6072
lfoot -32.8986 3.67846
ltoes 27.896
2431
root 6.59612 14.6274 -3.42154 -363.325 7.86751 354.952
lowerback 19.861 5.28606 -2.55283
upperback -1.21824 6.79853 2.89094
thorax -13.2264 3.45365 2.56748
lowerneck -12.1592 -4.74282 -0.680776
upperneck 17.3432 -6.99571 3.36164
head 7.48301 -3.06613 0.507301
rclavicle -1.13804e-014 2.08724e-015
rhumerus -21.1155 57.434 -112.058
rradius 47.2012
rwrist -66.5067
rhand -14.1771 8.4932
rfingers 7.12502
rthumb 11.9583 -21.1452
lclavicle -1.13804e-014 2.08724e-015
lhumerus -35.4844 25.4789 62.9594
lradius 47.7446
lwrist 58.9283
lhand 0.101419 25.627
lfingers 7.12502
lthumb 25.6875 53.9138
rfemur -23.743 -11.7473 -0.568749
rtibia 32.128
rfoot -30.7072 -20.0539
rtoes 35.3476
lfemur -29.9351 11.4705 -24.8412
ltibia 66.4246
lfoot -32.8389 1.31004
ltoes 32.7326
2432
root 6.58925 14.6302 -3.40549 -363.501 7.45965 354.905
lowerback 19.7275 5.50112 -2.47524
upperback -1.01778 7.09528 2.86873
thorax -12.9279 3.5822 2.42085
lowerneck -12.2171 -4.81813 -0.691989
upperneck 17.1796 -7.08545 3.33982
head 7.44115 -3.11446 0.49312
rclavicle -5.8511e-014 4.96962e-016
rhumerus -20.8699 58.15 -111.807
rradius 47.5084
rwrist -67.2493
rhand -15.1454 8.88088
rfingers 7.12502
rthumb 11.0245 -20.8096
lclavicle -5.8511e-014 4.96962e-016
lhumerus -35.0691 25.4607 63.2208
lradius 47.6808
lwrist 58.9168
lhand -0.00467921 25.3599
lfingers 7.12502
lthumb 25.5859 53.6613
rfemur -23.651 -9.35314 -0.749606
rtibia 30.3958
rfoot -33.3347 -20.1952
rtoes 36.3987
lfemur -29.6528 11.9 -24.6482
ltibia 66.42
lfoot -32.849 2.1831
ltoes 31.6478
2433
root 6.57686 14.6175 -3.39159 -363.632 7.61689 355.151
lowerback 19.5977 5.56189 -2.67494
upperback -0.781646 7.11749 2.82332
thorax -12.6014 3.60186 2.49446
lowerneck -12.614 -4.8664 -0.889609
upperneck 17.2012 -7.13226 3.4291
head 7.53017 -3.13492 0.538496
rclavicle -7.65694e-014 -1.21259e-014
rhumerus -20.0094 58.6971 -110.837
rradius 47.5856
rwrist -67.7858
rhand -14.0222 8.33123
rfingers 7.12502
rthumb 12.1077 -21.2984
lclavicle -7.65694e-014 -1.21259e-014
lhumerus -34.6835 25.8906 63.4282
lradius 47.5873
lwrist 58.6423
lhand 0.275007 25.6799
lfingers 7.12502
lthumb 25.8538 53.9425
rfemur -23.2786 -7.44184 -1.48071
rtibia 28.7943
rfoot -35.1537 -21.1479
rtoes 35.8131
lfemur -29.4371 11.6175 -24.8547
ltibia 66.4627
lfoot -32.9636 2.26993
ltoes 31.5965
2434
root 6.54673 14.613 -3.36964 -363.734 7.78332 355.106
lowerback 19.5786 5.62861 -2.86523
upperback -0.796462 7.16637 2.84709
thorax -12.6403 3.63877 2.61223
lowerneck -12.5112 -4.91611 -0.945001
upperneck 17.3083 -7.21234 3.52682
head 7.55507 -3.16642 0.572139
rclavicle -4.33848e-014 5.71506e-015
rhumerus -20.0721 58.4811 -110.934
rradius 47.4459
rwrist -67.1245
rhand -13.7515 7.92324
rfingers 7.12502
rthumb 12.3687 -21.6909
lclavicle -4.33848e-014 5.71506e-015
lhumerus -34.6952 26.1061 63.298
lradius 47.358
lwrist 58.3561
lhand 0.929925 25.0072
lfingers 7.12502
lthumb 26.4808 53.177
rfemur -22.7258 -4.62888 -1.91602
rtibia 27.1761
rfoot -39.4364 -20.8346
rtoes 38.8106
lfemur -29.2938 11.6597 -24.5954
ltibia 66.5089
lfoot -33.3195 2.39471
ltoes 29.6052
2435
root 6.53479 14.6099 -3.33713 -363.473 8.09784 355.296
lowerback 19.7273 5.60605 -2.90987
upperback -1.32917 7.10709 2.60571
thorax -13.3089 3.60862 2.35302
lowerneck -12.089 -4.97727 -1.06747
upperneck 17.573 -7.32914 3.7646
head 7.5844 -3.20804 0.664846
rclavicle -1.0343e-015 -6.41081e-015
rhumerus -21.2647 58.1008 -112.19
rradius 47.4022
rwrist -67.0487
rhand -13.8239 7.79825
rfingers 7.12502
rthumb 12.2989 -21.8201
lclavicle -1.0343e-015 -6.41081e-015
lhumerus -35.5277 25.325 62.8205
lradius 47.7163
lwrist 58.4862
lhand 0.216035 25.1709
lfingers 7.12502
lthumb 25.7973 53.4418
rfemur -22.2436 -2.23607 -2.72024
rtibia 25.375
rfoot -42.4546 -21.5079
rtoes 37.9871
lfemur -29.5161 11.1671 -24.8549
ltibia 66.586
lfoot -33.0773 1.91214
ltoes 31.5633
2436
root 6.51444 14.5945 -3.2967 -363.625 8.21217 355.377
lowerback 19.441 5.6021 -2.94263
upperback -1.20434 7.0709 2.41445
thorax -12.9711 3.58528 2.19821
lowerneck -12.3201 -4.94122 -0.844185
upperneck 17.7187 -7.37649 3.98728
head 7.67612 -3.18734 0.688637
rclavicle -4.51303e-014 6.41081e-015
rhumerus -20.9024 58.6235 -112.222
rradius 47.3259
rwrist -66.3837
rhand -12.8551 6.67259
rfingers 7.12502
rthumb 13.2329 -22.8874
lclavicle -4.51303e-014 6.41081e-015
lhumerus -35.1975 25.8421 62.3892
lradius 47.4071
lwrist 58.152
lhand -0.896793 24.9396
lfingers 7.12502
lthumb 24.7311 53.361
rfemur -21.6347 0.252781 -3.29123
rtibia 24.0964
rfoot -44.8584 -22.1994
rtoes 38.911
lfemur -29.1715 11.3184 -24.7125
ltibia 66.6767
lfoot -33.0932 1.95938
ltoes 31.3783
2437
root 6.49165 14.5965 -3.27774 -363.739 8.42779 355.485
lowerback 20.7557 5.61078 -2.41334
upperback -1.91857 7.12074 1.83368
thorax -14.4209 3.52747 1.09517
lowerneck -11.7857 -5.15305 -0.731018
upperneck 18.0157 -7.78446 4.40133
head 7.70393 -3.33569 0.77301
rclavicle 4.35152e-014 6.16232e-015
rhumerus -22.4815 58.378 -114.129
rradius 47.6457
rwrist -67.6257
rhand -14.1358 7.79529
rfingers 7.12502
rthumb 11.9982 -21.8408
lclavicle 4.35152e-014 6.16232e-015
lhumerus -36.0666 23.8904 61.709
lradius 48.1322
lwrist 59.4062
lhand -0.802249 25.3074
lfingers 7.12502
lthumb 24.8217 53.7164
rfemur -21.1614 2.27547 -3.79138
rtibia 23.5073
rfoot -46.7429 -22.1422
rtoes 36.9665
lfemur -28.9533 11.0689 -24.7143
ltibia 66.6708
lfoot -33.2191 1.18713
ltoes 32.2506
2438
root 6.46107 14.5883 -3.24359 -363.883 8.46757 355.41
lowerback 20.6918 5.70869 -2.34262
upperback -1.90781 7.25387 1.72195
thorax -14.3522 3.57691 0.891192
lowerneck -11.6905 -5.35762 -0.939014
upperneck 18.0462 -8.0977 4.75712
head 7.73084 -3.46568 0.891199
rclavicle 1.03244e-013 5.36719e-015
rhumerus -22.5018 58.4566 -114.311
rradius 47.4643
rwrist -66.4121
rhand -15.5714 8.91375
rfingers 7.12502
rthumb 10.6136 -20.7982
lclavicle 1.03244e-013 5.36719e-015
lhumerus -35.8751 24.7203 61.2508
lradius 47.7155
lwrist 58.3674
lhand 0.77001 25.4646
lfingers 7.12502
lthumb 26.3277 53.6573
rfemur -20.4778 3.60147 -3.77673
rtibia 22.3502
rfoot -46.639 -22.881
rtoes 36.0049
lfemur -28.8217 11.2233 -24.4197
ltibia 66.8647
lfoot -33.1859 2.38374
ltoes 30.1477
2439
root 6.42472 14.5747 -3.21783 -363.94 8.97691 355.383
lowerback 20.6486 5.72858 -2.06673
upperback -1.78805 7.31632 1.50987
thorax -14.1187 3.57376 0.4904
lowerneck -11.7563 -5.55175 -0.594986
upperneck 17.6459 -8.41335 4.78456
head 7.60787 -3.60021 0.813715
rclavicle 9.29691e-014 3.26007e-014
rhumerus -21.1274 57.8669 -113.118
rradius 47.3071
rwrist -66.5244
rhand -14.2741 8.01744
rfingers 7.12502
rthumb 11.8648 -21.6264
lclavicle 9.29691e-014 3.26007e-014
lhumerus -35.2428 23.7121 61.6399
lradius 48.0498
lwrist 59.317
lhand 0.494181 25.3227
lfingers 7.12502
lthumb 26.0636 53.5546
rfemur -19.7933 4.63788 -3.83858
rtibia 21.7387
rfoot -47.8989 -23.2892
rtoes 34.9098
lfemur -28.8745 10.6492 -24.2627
ltibia 67.089
lfoot -33.1516 2.57305
ltoes 29.8365
2440
root 6.38209 14.5624 -3.18644 -364.192 9.27656 355.222
lowerback 20.6817 5.763 -2.35147
upperback -1.68696 7.31531 1.70498
thorax -14.0872 3.60513 0.869053
lowerneck -11.5314 -5.61712 -0.329696
upperneck 17.5592 -8.49888 4.55007
head 7.51932 -3.65208 0.694532
rclavicle 1.594e-014 3.77691e-015
rhumerus -21.2893 58.1103 -113.306
rradius 47.1641
rwrist -66.9098
rhand -14.956 8.79147
rfingers 7.12502
rthumb 11.2071 -20.8892
lclavicle 1.594e-014 3.77691e-015
lhumerus -35.1858 24.5961 61.4823
lradius 47.769
lwrist 58.6274
lhand -0.316709 25.0554
lfingers 7.12502
lthumb 25.287 53.3994
rfemur -19.245 5.01324 -3.52556
rtibia 21.443
rfoot -47.2498 -22.4335
rtoes 38.0045
lfemur -28.7014 10.5159 -23.829
ltibia 67.3906
lfoot -33.2326 2.18553
ltoes 29.9282
